<?xml version="1.0" encoding="UTF-8"?>
<svg xmlns="http://www.w3.org/2000/svg" xmlns:xlink="http://www.w3.org/1999/xlink" width="13pt" height="11pt" viewBox="0 0 13 11" version="1.1">
<g id="surface1">
<path style=" stroke:none;fill-rule:nonzero;fill:rgb(0%,0%,0%);fill-opacity:1;" d="M 12.402344 8.019531 C 12.453125 7.71875 12.453125 7.40625 12.402344 7.105469 L 12.925781 6.785156 C 12.984375 6.75 13.011719 6.671875 12.992188 6.601562 C 12.855469 6.136719 12.621094 5.71875 12.316406 5.367188 C 12.269531 5.316406 12.195312 5.300781 12.132812 5.339844 L 11.609375 5.660156 C 11.390625 5.460938 11.136719 5.304688 10.859375 5.203125 L 10.859375 4.5625 C 10.859375 4.488281 10.8125 4.421875 10.746094 4.410156 C 10.292969 4.300781 9.832031 4.304688 9.402344 4.410156 C 9.332031 4.421875 9.285156 4.488281 9.285156 4.5625 L 9.285156 5.203125 C 9.011719 5.304688 8.757812 5.460938 8.535156 5.660156 L 8.011719 5.339844 C 7.953125 5.300781 7.875 5.316406 7.828125 5.367188 C 7.523438 5.71875 7.289062 6.136719 7.152344 6.601562 C 7.132812 6.671875 7.164062 6.75 7.222656 6.785156 L 7.746094 7.105469 C 7.691406 7.40625 7.691406 7.71875 7.746094 8.019531 L 7.222656 8.339844 C 7.160156 8.375 7.132812 8.453125 7.152344 8.523438 C 7.289062 8.988281 7.523438 9.40625 7.828125 9.757812 C 7.875 9.808594 7.949219 9.824219 8.011719 9.785156 L 8.535156 9.464844 C 8.757812 9.664062 9.011719 9.820312 9.285156 9.921875 L 9.285156 10.5625 C 9.285156 10.636719 9.332031 10.703125 9.402344 10.714844 C 9.855469 10.824219 10.316406 10.820312 10.746094 10.714844 C 10.8125 10.703125 10.859375 10.636719 10.859375 10.5625 L 10.859375 9.921875 C 11.136719 9.820312 11.390625 9.664062 11.609375 9.464844 L 12.132812 9.785156 C 12.195312 9.824219 12.269531 9.808594 12.316406 9.757812 C 12.621094 9.40625 12.855469 8.988281 12.992188 8.523438 C 13.011719 8.453125 12.984375 8.375 12.925781 8.339844 Z M 10.074219 8.605469 C 9.53125 8.605469 9.089844 8.136719 9.089844 7.5625 C 9.089844 6.988281 9.53125 6.519531 10.074219 6.519531 C 10.617188 6.519531 11.058594 6.988281 11.058594 7.5625 C 11.058594 8.136719 10.621094 8.605469 10.074219 8.605469 Z M 4.550781 5.5 C 5.984375 5.5 7.148438 4.269531 7.148438 2.75 C 7.148438 1.230469 5.984375 0 4.550781 0 C 3.113281 0 1.949219 1.230469 1.949219 2.75 C 1.949219 4.269531 3.113281 5.5 4.550781 5.5 Z M 8.636719 10.367188 C 8.589844 10.339844 8.542969 10.308594 8.5 10.28125 L 8.339844 10.382812 C 8.214844 10.453125 8.078125 10.496094 7.941406 10.496094 C 7.71875 10.496094 7.503906 10.394531 7.351562 10.222656 C 6.980469 9.800781 6.695312 9.28125 6.535156 8.730469 C 6.425781 8.347656 6.574219 7.945312 6.898438 7.746094 L 7.0625 7.648438 C 7.058594 7.59375 7.058594 7.535156 7.0625 7.480469 L 6.898438 7.382812 C 6.574219 7.183594 6.425781 6.78125 6.535156 6.398438 C 6.554688 6.339844 6.582031 6.277344 6.601562 6.214844 C 6.523438 6.207031 6.449219 6.1875 6.371094 6.1875 L 6.03125 6.1875 C 5.578125 6.40625 5.078125 6.53125 4.550781 6.53125 C 4.023438 6.53125 3.523438 6.40625 3.070312 6.1875 L 2.730469 6.1875 C 1.222656 6.1875 0 7.480469 0 9.074219 L 0 9.96875 C 0 10.539062 0.4375 11 0.976562 11 L 8.125 11 C 8.332031 11 8.519531 10.929688 8.675781 10.816406 C 8.652344 10.734375 8.636719 10.652344 8.636719 10.5625 Z M 8.636719 10.367188 "/>
</g>
</svg>
