<?xml version="1.0" encoding="UTF-8"?>
<svg xmlns="http://www.w3.org/2000/svg" xmlns:xlink="http://www.w3.org/1999/xlink" width="10pt" height="11pt" viewBox="0 0 10 11" version="1.1">
<g id="surface1">
<path style=" stroke:none;fill-rule:nonzero;fill:rgb(0%,0%,0%);fill-opacity:1;" d="M 0 9.96875 C 0 10.539062 0.480469 11 1.070312 11 L 8.929688 11 C 9.519531 11 10 10.539062 10 9.96875 L 10 4.125 L 0 4.125 Z M 7.144531 5.757812 C 7.144531 5.617188 7.261719 5.5 7.410156 5.5 L 8.304688 5.5 C 8.449219 5.5 8.570312 5.617188 8.570312 5.757812 L 8.570312 6.617188 C 8.570312 6.757812 8.449219 6.875 8.304688 6.875 L 7.410156 6.875 C 7.261719 6.875 7.144531 6.757812 7.144531 6.617188 Z M 7.144531 8.507812 C 7.144531 8.367188 7.261719 8.25 7.410156 8.25 L 8.304688 8.25 C 8.449219 8.25 8.570312 8.367188 8.570312 8.507812 L 8.570312 9.367188 C 8.570312 9.507812 8.449219 9.625 8.304688 9.625 L 7.410156 9.625 C 7.261719 9.625 7.144531 9.507812 7.144531 9.367188 Z M 4.285156 5.757812 C 4.285156 5.617188 4.40625 5.5 4.554688 5.5 L 5.445312 5.5 C 5.59375 5.5 5.714844 5.617188 5.714844 5.757812 L 5.714844 6.617188 C 5.714844 6.757812 5.59375 6.875 5.445312 6.875 L 4.554688 6.875 C 4.40625 6.875 4.285156 6.757812 4.285156 6.617188 Z M 4.285156 8.507812 C 4.285156 8.367188 4.40625 8.25 4.554688 8.25 L 5.445312 8.25 C 5.59375 8.25 5.714844 8.367188 5.714844 8.507812 L 5.714844 9.367188 C 5.714844 9.507812 5.59375 9.625 5.445312 9.625 L 4.554688 9.625 C 4.40625 9.625 4.285156 9.507812 4.285156 9.367188 Z M 1.429688 5.757812 C 1.429688 5.617188 1.550781 5.5 1.695312 5.5 L 2.589844 5.5 C 2.738281 5.5 2.855469 5.617188 2.855469 5.757812 L 2.855469 6.617188 C 2.855469 6.757812 2.738281 6.875 2.589844 6.875 L 1.695312 6.875 C 1.550781 6.875 1.429688 6.757812 1.429688 6.617188 Z M 1.429688 8.507812 C 1.429688 8.367188 1.550781 8.25 1.695312 8.25 L 2.589844 8.25 C 2.738281 8.25 2.855469 8.367188 2.855469 8.507812 L 2.855469 9.367188 C 2.855469 9.507812 2.738281 9.625 2.589844 9.625 L 1.695312 9.625 C 1.550781 9.625 1.429688 9.507812 1.429688 9.367188 Z M 8.929688 1.375 L 7.855469 1.375 L 7.855469 0.34375 C 7.855469 0.15625 7.695312 0 7.5 0 L 6.785156 0 C 6.589844 0 6.429688 0.15625 6.429688 0.34375 L 6.429688 1.375 L 3.570312 1.375 L 3.570312 0.34375 C 3.570312 0.15625 3.410156 0 3.214844 0 L 2.5 0 C 2.304688 0 2.144531 0.15625 2.144531 0.34375 L 2.144531 1.375 L 1.070312 1.375 C 0.480469 1.375 0 1.835938 0 2.40625 L 0 3.4375 L 10 3.4375 L 10 2.40625 C 10 1.835938 9.519531 1.375 8.929688 1.375 Z M 8.929688 1.375 "/>
</g>
</svg>
